<svg width="512" height="512" viewBox="0 0 512 512" fill="none" xmlns="http://www.w3.org/2000/svg">
  <!-- Background Circle -->
  <circle cx="256" cy="256" r="256" fill="#3b82f6"/>
  
  <!-- Chat Bubble 1 -->
  <path d="M150 180c0-20 16-36 36-36h100c20 0 36 16 36 36v60c0 20-16 36-36 36h-80l-20 20v-20c-20 0-36-16-36-36v-60z" fill="white"/>
  
  <!-- Chat Bubble 2 -->
  <path d="M200 280c0-20 16-36 36-36h100c20 0 36 16 36 36v60c0 20-16 36-36 36h-80l-20 20v-20c-20 0-36-16-36-36v-60z" fill="white" opacity="0.8"/>
  
  <!-- Message Lines -->
  <rect x="170" y="200" width="60" height="4" rx="2" fill="#3b82f6"/>
  <rect x="170" y="215" width="40" height="4" rx="2" fill="#3b82f6"/>
  
  <rect x="220" y="300" width="60" height="4" rx="2" fill="#3b82f6"/>
  <rect x="220" y="315" width="40" height="4" rx="2" fill="#3b82f6"/>
</svg>
